<?xml version="1.0" encoding="utf-8"?>
<svg id="master-artboard" viewBox="0 0 200 200" version="1.1" xmlns="http://www.w3.org/2000/svg" x="0px" y="0px" style="enable-background:new 0 0 1400 980;" width="200px" height="200px"><rect id="ee-background" x="0" y="0" width="200" height="200" style="fill: white; fill-opacity: 0; pointer-events: none;"/><g transform="matrix(1.6129031181335451, 0, 0, 1.6129031181335451, -631.15715000856, -117.30296216357476)"><g style="fill:none; stroke:#FFFFFF; stroke-width :2.5;"> 
		<g>
			<path d="M 516 136 A 62 62 0 0 1 454 198 A 62 62 0 0 1 392 136 A 62 62 0 0 1 454 74 A 62 62 0 0 1 516 136 Z" fill="#000080"/>
			<path d="M 483.381,98.885 c -0.098 -0.8 -0.015 -1.64 -0.313 -2.309 c -1.026 -2.297 -3.074 -2.985 -5.628 -1.951 c -2.954,1.197 -5.585,2.973 -8.008,4.991 c -3.717,3.094 -7.279,6.374 -10.934,9.544 c -1.392,1.208 -2.856,2.33 -4.344,3.536 c -0.242 -1.865 -1.093 -2.573 -2.838 -2.229 c -1.187,0.234 -2.321,0.737 -3.478,1.125 c -2.024,0.679 -4.004,1.616 -6.083,1.979 c -2.527,0.442 -4.319,1.608 -5.696,3.72 c -2.551,3.913 -5.557,7.474 -8.704,10.919 c -0.398,0.436 -0.713,1 -0.908,1.561 c -1.307,3.758 -2.609,7.519 -3.838,11.303 c -1.053,3.242 -2.71,6.328 -2.619,9.885 c 0.008,0.283 -0.38,0.686 -0.684,0.848 c -1.617,0.87 -3.271,1.67 -4.898,2.523 c -0.216,0.113 -0.35,0.384 -0.521,0.581 c 0.258,0.001,0.561,0.092,0.768 -0.011 c 1.566 -0.77,3.094 -1.621,4.675 -2.356 c 0.882 -0.41,1.303 -0.973,1.354 -1.957 c 0.061 -1.155,0.091 -2.364,0.449 -3.444 c 1.911 -5.75,3.917 -11.47,5.904 -17.195 c 0.137 -0.395,0.319 -0.814,0.598 -1.114 c 3.486 -3.763,6.669 -7.768,9.558 -12.004 c 0.937 -1.373,2.16 -2.18,3.818 -2.427 c 2.622 -0.392,5.099 -1.247,7.49 -2.407 c 0.946 -0.459,2.015 -0.711,3.054 -0.925 c 0.642 -0.131,1.402 -0.126,1.776,0.614 c 0.399,0.792,0.156,1.602 -0.593,2.238 c -0.374,0.318 -0.729,0.663 -1.13,0.942 c -4.372,3.047 -8.787,6.035 -13.118,9.14 c -3.135,2.247 -6.164,4.641 -9.229,6.985 c -0.249,0.19 -0.409,0.495 -0.61,0.746 c 0.073,0.076,0.147,0.152,0.222,0.228 c 0.229 -0.145,0.476 -0.268,0.682 -0.44 c 0.612 -0.511,1.168 -1.097,1.815 -1.555 c 4.253 -3.004,8.464 -6.072,12.803 -8.946 c 5.666 -3.751,10.847 -8.097,15.963 -12.536 c 1.733 -1.504,3.477 -2.998,5.217 -4.495 c 1.068 -0.918,2.177 -1.793,3.201 -2.758 c 2.409 -2.269,5.151 -4.047,8.069 -5.564 c 0.722 -0.375,1.536 -0.6,2.332 -0.802 c 1.178 -0.299,2.164,0.093,2.962,1.001 c 0.823,0.938,1.137,1.973,0.492,3.115 c -0.309,0.546 -0.682,1.091 -1.138,1.515 c -5.642,5.231 -11.548,10.171 -16.847,15.777 c -1.946,2.058 -4.247,3.781 -6.378,5.665 c -0.145,0.128 -0.229,0.324 -0.343,0.489 c 0.066,0.071,0.133,0.142,0.199,0.212 c 0.352 -0.191,0.754 -0.325,1.046 -0.583 c 2.041 -1.805,4.178 -3.521,6.062 -5.48 c 6.729 -6.995,14.056 -13.323,21.471 -19.558 c 0.912 -0.767,1.991 -1.097,3.142 -1.126 c 2.28 -0.058,3.843,2.66,2.783,4.919 c -0.409,0.872 -1.025,1.67 -1.657,2.409 c -1.77,2.07 -3.584,4.101 -5.401,6.128 c -5.176,5.772 -10.222,11.669 -16.255,16.608 c -0.864,0.707 -1.536,1.656 -2.261,2.524 c -0.21,0.252 -0.292,0.611 -0.433,0.921 c 0.078,0.06,0.157,0.121,0.235,0.181 c 0.17 -0.146,0.359 -0.275,0.506 -0.441 c 0.909 -1.028,1.677 -2.231,2.734 -3.071 c 4.301 -3.412,7.909 -7.511,11.624 -11.5 c 2.674 -2.871,5.207 -5.873,7.813 -8.807 c 0.84 -0.945,1.858 -1.166,2.887 -0.676 c 1.87,0.891,2.676,3.707,1.536,5.426 c -2.826,4.263 -5.646,8.52 -8.783,12.577 c -2.562,3.313 -5.225,6.479 -8.364,9.254 c -1.005,0.889 -1.961,1.874 -2.758,2.95 c -1.292,1.744 -2.442,3.594 -3.627,5.416 c -0.115,0.178 -0.053,0.471 -0.073,0.71 c 0.199 -0.141,0.443 -0.247,0.588 -0.431 c 0.225 -0.287,0.38 -0.628,0.566 -0.944 c 1.584 -2.678,3.474 -5.1,5.699 -7.294 c 3.62 -3.567,7.14 -7.236,10.698 -10.866 c 0.579 -0.59,1.092 -1.254,1.717 -1.79 c 0.941 -0.808,2.282 -0.737,2.847,0.143 c 0.587,0.915,1.078,1.958,0.69,3.037 c -0.522,1.458 -1.122,2.914 -1.898,4.249 c -2.387,4.106 -5.609,7.585 -8.687,11.159 c -3.659,4.25 -7.479,8.361 -10.247,13.303 c -0.515,0.92 -1.236,1.777 -2.025,2.482 c -4.709,4.206 -9.402,8.435 -14.226,12.51 c -4.675,3.949 -9.674,7.417 -15.576,9.376 c -1.321,0.439 -2.558,1.132 -3.833,1.707 c 0.027,0.114,0.056,0.228,0.084,0.341 c 0.386 -0.063,0.803 -0.054,1.153 -0.203 c 1.55 -0.657,3.041 -1.467,4.624 -2.023 c 3.485 -1.226,6.566 -3.139,9.52 -5.297 c 5.877 -4.295,11.271 -9.162,16.675 -14.022 c 2.333 -2.099,4.209 -4.497,5.851 -7.151 c 1.155 -1.868,2.499 -3.635,3.9 -5.33 c 2.441 -2.954,5 -5.809,7.492 -8.72 c 2.574 -3.007,5.077 -6.073,6.854 -9.642 c 0.433 -0.869,0.773 -1.807,0.995 -2.751 c 0.347 -1.481 -0.562 -3.576 -1.66 -4.106 c -1.175 -0.567 -2.51 -0.113 -3.796,1.292 c -0.442,0.484 -0.881,0.972 -1.321,1.458 c -0.067 -0.184 -0.021 -0.281,0.039 -0.369 c 2.459 -3.547,4.911 -7.099,7.382 -10.638 c 0.718 -1.028,0.935 -2.108,0.537 -3.306 c -0.628 -1.895 -1.667 -3.323 -3.989 -3.402 c 0.262 -0.313,0.482 -0.522,0.638 -0.771 c 0.595 -0.955,1.361 -1.857,1.712 -2.897 c 1.04 -3.085 -1.433 -5.82 -4.583 -5.072 c -0.997,0.236 -1.941,0.844 -2.81,1.43 C 484.863,97.477,484.111,98.254,483.381,98.885 z"/>
			<path d="M 483.381,98.885 c 0.73 -0.631,1.482 -1.408,2.358 -2 c 0.868 -0.586,1.812 -1.194,2.81 -1.43 c 3.15 -0.748,5.623,1.987,4.583,5.072 c -0.351,1.041 -1.117,1.943 -1.712,2.897 c -0.155,0.25 -0.376,0.458 -0.638,0.771 c 2.322,0.079,3.361,1.507,3.989,3.402 c 0.397,1.198,0.181,2.278 -0.537,3.306 c -2.471,3.539 -4.923,7.09 -7.382,10.638 c -0.061,0.087 -0.106,0.185 -0.039,0.369 c 0.44 -0.486,0.879 -0.973,1.321 -1.458 c 1.286 -1.405,2.621 -1.858,3.796 -1.292 c 1.098,0.53,2.007,2.625,1.66,4.106 c -0.222,0.944 -0.562,1.883 -0.995,2.751 c -1.776,3.569 -4.279,6.635 -6.854,9.642 c -2.492,2.912 -5.051,5.767 -7.492,8.72 c -1.401,1.695 -2.745,3.462 -3.9,5.33 c -1.642,2.654 -3.518,5.052 -5.851,7.151 c -5.404,4.86 -10.798,9.728 -16.675,14.022 c -2.953,2.158 -6.034,4.071 -9.52,5.297 c -1.583,0.557 -3.074,1.366 -4.624,2.023 c -0.351,0.149 -0.768,0.14 -1.153,0.203 c -0.028 -0.113 -0.057 -0.227 -0.084 -0.341 c 1.275 -0.575,2.512 -1.268,3.833 -1.707 c 5.902 -1.959,10.901 -5.427,15.576 -9.376 c 4.823 -4.075,9.517 -8.304,14.226 -12.51 c 0.789 -0.705,1.511 -1.562,2.025 -2.482 c 2.768 -4.941,6.588 -9.053,10.247 -13.303 c 3.077 -3.574,6.3 -7.053,8.687 -11.159 c 0.776 -1.335,1.376 -2.791,1.898 -4.249 c 0.388 -1.079 -0.104 -2.123 -0.69 -3.037 c -0.564 -0.879 -1.905 -0.951 -2.847 -0.143 c -0.625,0.536 -1.138,1.199 -1.717,1.79 c -3.559,3.63 -7.078,7.298 -10.698,10.866 c -2.226,2.194 -4.115,4.616 -5.699,7.294 c -0.187,0.316 -0.342,0.657 -0.566,0.944 c -0.145,0.184 -0.389,0.29 -0.588,0.431 c 0.021 -0.239 -0.042 -0.532,0.073 -0.71 c 1.185 -1.822,2.335 -3.672,3.627 -5.416 c 0.797 -1.076,1.753 -2.061,2.758 -2.95 c 3.14 -2.775,5.803 -5.941,8.364 -9.254 c 3.137 -4.058,5.957 -8.314,8.783 -12.577 c 1.14 -1.719,0.334 -4.535 -1.536 -5.426 c -1.028 -0.49 -2.047 -0.27 -2.887,0.676 c -2.606,2.934 -5.14,5.936 -7.813,8.807 c -3.715,3.989 -7.323,8.087 -11.624,11.5 c -1.058,0.839 -1.825,2.042 -2.734,3.071 c -0.146,0.166 -0.336,0.295 -0.506,0.441 c -0.078 -0.061 -0.157 -0.121 -0.235 -0.181 c 0.141 -0.31,0.223 -0.669,0.433 -0.921 c 0.725 -0.868,1.396 -1.817,2.261 -2.524 c 6.033 -4.939,11.079 -10.836,16.255 -16.608 c 1.817 -2.027,3.632 -4.059,5.401 -6.128 c 0.632 -0.738,1.248 -1.537,1.657 -2.409 c 1.06 -2.259 -0.503 -4.977 -2.783 -4.919 c -1.15,0.029 -2.229,0.36 -3.142,1.126 c -7.415,6.235 -14.741,12.563 -21.471,19.558 c -1.884,1.959 -4.021,3.675 -6.062,5.48 c -0.292,0.258 -0.694,0.392 -1.046,0.583 c -0.066 -0.071 -0.133 -0.142 -0.199 -0.212 c 0.113 -0.165,0.198 -0.36,0.343 -0.489 c 2.131 -1.884,4.432 -3.607,6.378 -5.665 c 5.299 -5.606,11.205 -10.546,16.847 -15.777 c 0.456 -0.423,0.829 -0.968,1.138 -1.515 c 0.645 -1.143,0.331 -2.177 -0.492 -3.115 c -0.798 -0.909 -1.784 -1.3 -2.962 -1.001 c -0.796,0.202 -1.61,0.426 -2.332,0.802 c -2.918,1.517 -5.66,3.295 -8.069,5.564 c -1.024,0.965 -2.133,1.84 -3.201,2.758 c -1.74,1.497 -3.483,2.991 -5.217,4.495 c -5.116,4.439 -10.297,8.785 -15.963,12.536 c -4.339,2.874 -8.55,5.942 -12.803,8.946 c -0.647,0.458 -1.203,1.044 -1.815,1.555 c -0.206,0.172 -0.453,0.295 -0.682,0.44 c -0.074 -0.076 -0.148 -0.151 -0.222 -0.228 c 0.201 -0.251,0.361 -0.556,0.61 -0.746 c 3.064 -2.344,6.094 -4.738,9.229 -6.985 c 4.331 -3.105,8.746 -6.093,13.118 -9.14 c 0.401 -0.279,0.756 -0.625,1.13 -0.942 c 0.749 -0.637,0.992 -1.447,0.593 -2.238 c -0.374 -0.74 -1.135 -0.746 -1.776 -0.614 c -1.039,0.213 -2.107,0.465 -3.054,0.925 c -2.392,1.16 -4.868,2.015 -7.49,2.407 c -1.658,0.248 -2.882,1.054 -3.818,2.427 c -2.889,4.236 -6.071,8.241 -9.558,12.004 c -0.278,0.3 -0.461,0.719 -0.598,1.114 c -1.987,5.725 -3.993,11.445 -5.904,17.195 c -0.358,1.08 -0.389,2.289 -0.449,3.444 c -0.051,0.984 -0.472,1.547 -1.354,1.957 c -1.581,0.735 -3.108,1.587 -4.675,2.356 c -0.207,0.103 -0.51,0.012 -0.768,0.011 c 0.171 -0.197,0.305 -0.468,0.521 -0.581 c 1.627 -0.853,3.281 -1.653,4.898 -2.523 c 0.304 -0.163,0.691 -0.565,0.684 -0.848 c -0.091 -3.557,1.566 -6.643,2.619 -9.885 c 1.229 -3.784,2.531 -7.545,3.838 -11.303 c 0.195 -0.561,0.51 -1.125,0.908 -1.561 c 3.147 -3.446,6.153 -7.007,8.704 -10.919 c 1.377 -2.111,3.169 -3.278,5.696 -3.72 c 2.079 -0.363,4.059 -1.3,6.083 -1.979 c 1.156 -0.388,2.291 -0.891,3.478 -1.125 c 1.745 -0.344,2.596,0.364,2.838,2.229 c 1.487 -1.206,2.952 -2.329,4.344 -3.536 c 3.654 -3.17,7.217 -6.45,10.934 -9.544 c 2.423 -2.018,5.054 -3.794,8.008 -4.991 c 2.554 -1.034,4.602 -0.346,5.628,1.951 C 483.366,97.245,483.283,98.084,483.381,98.885 z"/>
		</g>
	</g></g></svg>